<?xml version="1.0" encoding="UTF-8" standalone="no"?>
<svg
   xmlns:dc="http://purl.org/dc/elements/1.1/"
   xmlns:cc="http://creativecommons.org/ns#"
   xmlns:rdf="http://www.w3.org/1999/02/22-rdf-syntax-ns#"
   xmlns:svg="http://www.w3.org/2000/svg"
   xmlns="http://www.w3.org/2000/svg"
   xmlns:sodipodi="http://sodipodi.sourceforge.net/DTD/sodipodi-0.dtd"
   xmlns:inkscape="http://www.inkscape.org/namespaces/inkscape"
   version="1.1"
   id="svg2"
   xml:space="preserve"
   width="666.66669"
   height="496.81332"
   viewBox="0 0 666.66669 496.81332"
   sodipodi:docname="3318329.eps"><metadata
     id="metadata8"><rdf:RDF><cc:Work
         rdf:about=""><dc:format>image/svg+xml</dc:format><dc:type
           rdf:resource="http://purl.org/dc/dcmitype/StillImage" /></cc:Work></rdf:RDF></metadata><defs
     id="defs6" /><sodipodi:namedview
     pagecolor="#ffffff"
     bordercolor="#666666"
     borderopacity="1"
     objecttolerance="10"
     gridtolerance="10"
     guidetolerance="10"
     inkscape:pageopacity="0"
     inkscape:pageshadow="2"
     inkscape:window-width="640"
     inkscape:window-height="480"
     id="namedview4" /><g
     id="g10"
     inkscape:groupmode="layer"
     inkscape:label="ink_ext_XXXXXX"
     transform="matrix(1.3333333,0,0,-1.3333333,0,496.81333)"><g
       id="g12"
       transform="scale(0.1)"><path
         d="m 0,449.129 h 5000 v 2.5 H 0 Z"
         style="fill:#e7e8e5;fill-opacity:1;fill-rule:nonzero;stroke:none"
         id="path14" /><path
         d="M 855.813,290.672 H 524.59 v -2.5 h 331.223 v 2.5"
         style="fill:#e7e8e5;fill-opacity:1;fill-rule:nonzero;stroke:none"
         id="path16" /><path
         d="m 1798.33,263.539 h -86.93 v -2.5 h 86.93 v 2.5"
         style="fill:#e7e8e5;fill-opacity:1;fill-rule:nonzero;stroke:none"
         id="path18" /><path
         d="M 1120,383.531 H 865.82 v -2.5 H 1120 v 2.5"
         style="fill:#e7e8e5;fill-opacity:1;fill-rule:nonzero;stroke:none"
         id="path20" /><path
         d="M 4499.01,366.73 H 4220 v -2.5 h 279.01 v 2.5"
         style="fill:#e7e8e5;fill-opacity:1;fill-rule:nonzero;stroke:none"
         id="path22" /><path
         d="m 4130.97,366.73 h -216.25 v -2.5 h 216.25 v 2.5"
         style="fill:#e7e8e5;fill-opacity:1;fill-rule:nonzero;stroke:none"
         id="path24" /><path
         d="m 3286.67,324.512 h -514.54 v -2.5 h 514.54 v 2.5"
         style="fill:#e7e8e5;fill-opacity:1;fill-rule:nonzero;stroke:none"
         id="path26" /><path
         d="m 439.152,3723.59 c -30.101,0 -54.582,-24.48 -54.582,-54.57 V 954.699 c 0,-30.097 24.481,-54.578 54.582,-54.578 H 2370.14 c 30.08,0 54.57,24.481 54.57,54.578 V 3669.02 c 0,30.09 -24.49,54.57 -54.57,54.57 H 439.152 M 2370.14,897.621 H 439.152 c -31.476,0 -57.082,25.598 -57.082,57.078 V 3669.02 c 0,31.46 25.606,57.07 57.082,57.07 H 2370.14 c 31.46,0 57.07,-25.61 57.07,-57.07 V 954.699 c 0,-31.48 -25.61,-57.078 -57.07,-57.078"
         style="fill:#e7e8e5;fill-opacity:1;fill-rule:nonzero;stroke:none"
         id="path28" /><path
         d="m 2602.12,3723.59 c -30.09,0 -54.57,-24.48 -54.57,-54.57 V 954.699 c 0,-30.097 24.48,-54.578 54.57,-54.578 h 1930.99 c 30.09,0 54.58,24.481 54.58,54.578 V 3669.02 c 0,30.09 -24.49,54.57 -54.58,54.57 H 2602.12 M 4533.11,897.621 H 2602.12 c -31.47,0 -57.07,25.598 -57.07,57.078 V 3669.02 c 0,31.46 25.6,57.07 57.07,57.07 h 1930.99 c 31.47,0 57.08,-25.61 57.08,-57.07 V 954.699 c 0,-31.48 -25.61,-57.078 -57.08,-57.078"
         style="fill:#e7e8e5;fill-opacity:1;fill-rule:nonzero;stroke:none"
         id="path30" /><path
         d="m 700.219,2506.34 h 48.019 L 778.715,2948 h -62.453 l -16.043,-441.66"
         style="fill:#e2e2e0;fill-opacity:1;fill-rule:nonzero;stroke:none"
         id="path32" /><path
         d="m 728.074,2506.34 h 48.02 L 806.57,2948 h -48.113 l -30.383,-441.66"
         style="fill:#f3f2f1;fill-opacity:1;fill-rule:nonzero;stroke:none"
         id="path34" /><path
         d="m 1944.43,2506.34 h 48.02 l 30.47,441.66 h -62.46 l -16.03,-441.66"
         style="fill:#e2e2e0;fill-opacity:1;fill-rule:nonzero;stroke:none"
         id="path36" /><path
         d="m 1972.28,2506.34 h 48.02 l 30.48,441.66 h -48.12 l -30.38,-441.66"
         style="fill:#f3f2f1;fill-opacity:1;fill-rule:nonzero;stroke:none"
         id="path38" /><path
         d="m 581.41,2948 h 320.399 v 74.93 H 581.41 V 2948"
         style="fill:#e2e2e0;fill-opacity:1;fill-rule:nonzero;stroke:none"
         id="path40" /><path
         d="M 2227.87,2948 H 901.809 v 74.93 H 2227.87 V 2948"
         style="fill:#f3f2f1;fill-opacity:1;fill-rule:nonzero;stroke:none"
         id="path42" /><path
         d="m 581.41,2619.47 h 320.398 v 74.9414 H 581.41 Z"
         style="fill:#e2e2e0;fill-opacity:1;fill-rule:nonzero;stroke:none"
         id="path44" /><path
         d="m 901.809,2619.47 h 1326.06 v 74.9414 H 901.809 Z"
         style="fill:#f3f2f1;fill-opacity:1;fill-rule:nonzero;stroke:none"
         id="path46" /><path
         d="m 1513.35,3432.38 h -389.18 c -50.86,0 -92.48,-41.62 -92.48,-92.48 v -224.49 c 0,-50.86 41.62,-92.48 92.48,-92.48 h 389.18 c 50.86,0 92.48,41.62 92.48,92.48 v 224.49 c 0,50.86 -41.62,92.48 -92.48,92.48"
         style="fill:#dadbd8;fill-opacity:1;fill-rule:nonzero;stroke:none"
         id="path48" /><path
         d="m 1155.13,3477.38 c -48.24,0 -87.47,-39.25 -87.47,-87.48 v -224.49 c 0,-48.23 39.23,-87.48 87.47,-87.48 h 389.19 c 48.23,0 87.47,39.25 87.47,87.48 v 224.49 c 0,48.23 -39.24,87.48 -87.47,87.48 z m 389.19,-409.45 h -389.19 c -53.75,0 -97.47,43.73 -97.47,97.48 v 224.49 c 0,53.75 43.72,97.48 97.47,97.48 h 389.19 c 53.75,0 97.47,-43.73 97.47,-97.48 v -224.49 c 0,-53.75 -43.72,-97.48 -97.47,-97.48"
         style="fill:#dadbd8;fill-opacity:1;fill-rule:nonzero;stroke:none"
         id="path50" /><path
         d="m 1603.46,3432.38 h -389.18 c -50.86,0 -92.47,-41.62 -92.47,-92.48 v -224.49 c 0,-50.86 41.61,-92.48 92.47,-92.48 h 389.18 c 50.86,0 92.48,41.62 92.48,92.48 v 224.49 c 0,50.86 -41.62,92.48 -92.48,92.48"
         style="fill:#ededeb;fill-opacity:1;fill-rule:nonzero;stroke:none"
         id="path52" /><path
         d="M 1695.94,3213.95 H 1095 v 13.71 h 600.94 v -13.71"
         style="fill:#dadbd8;fill-opacity:1;fill-rule:nonzero;stroke:none"
         id="path54" /><path
         d="M 1695.94,3143.08 H 1095 v 13.71 h 600.94 v -13.71"
         style="fill:#dadbd8;fill-opacity:1;fill-rule:nonzero;stroke:none"
         id="path56" /><path
         d="m 1636.79,3206.03 c 0,65.13 -52.8,117.92 -117.92,117.92 -65.12,0 -117.92,-52.79 -117.92,-117.92 0,-65.12 52.8,-117.91 117.92,-117.91 65.12,0 117.92,52.79 117.92,117.91"
         style="fill:#dadbd8;fill-opacity:1;fill-rule:nonzero;stroke:none"
         id="path58" /><path
         d="m 1644.7,3213.95 c 0,65.12 -52.79,117.92 -117.91,117.92 -65.12,0 -117.92,-52.8 -117.92,-117.92 0,-65.13 52.8,-117.92 117.92,-117.92 65.12,0 117.91,52.79 117.91,117.92"
         style="fill:#f3f2f1;fill-opacity:1;fill-rule:nonzero;stroke:none"
         id="path60" /><path
         d="m 1625.48,3213.95 c 0,54.5 -44.19,98.69 -98.69,98.69 -54.5,0 -98.69,-44.19 -98.69,-98.69 0,-54.5 44.19,-98.69 98.69,-98.69 54.5,0 98.69,44.19 98.69,98.69"
         style="fill:#e7e8e5;fill-opacity:1;fill-rule:nonzero;stroke:none"
         id="path62" /><path
         d="M 993.77,489.77 H 731.777 V 1823.9 H 993.77 V 489.77"
         style="fill:#ededeb;fill-opacity:1;fill-rule:nonzero;stroke:none"
         id="path64" /><path
         d="M 2074.12,489.77 H 782.078 V 451.629 H 2074.12 v 38.141"
         style="fill:#ededeb;fill-opacity:1;fill-rule:nonzero;stroke:none"
         id="path66" /><path
         d="M 993.77,489.77 H 2124.42 V 1823.9 H 993.77 Z"
         style="fill:#f3f2f1;fill-opacity:1;fill-rule:nonzero;stroke:none"
         id="path68" /><path
         d="M 2021.47,1659.78 V 1222.2 h -924.66 v 437.58 h 332.89 v -8.59 c 0,-13.17 10.88,-23.94 24.05,-23.94 h 210.78 c 13.17,0 23.94,10.77 23.94,23.94 v 8.59 h 333"
         style="fill:#dadbd8;fill-opacity:1;fill-rule:nonzero;stroke:none"
         id="path70" /><path
         d="m 2117.35,1674.89 -95.88,-452.69 h -924.66 l 95.89,452.69 h 332.99 l -1.83,-8.85 c -2.86,-13.62 5.5,-24.8 18.67,-24.8 h 210.78 c 13.17,0 26.34,11.18 29.21,24.8 l 1.83,8.85 h 333"
         style="fill:#e7e8e5;fill-opacity:1;fill-rule:nonzero;stroke:none"
         id="path72" /><path
         d="m 1096.77,653.992 h 924.65 V 1091.54 H 1096.77 V 653.992"
         style="fill:#e7e8e5;fill-opacity:1;fill-rule:nonzero;stroke:none"
         id="path74" /><path
         d="m 1664.48,1059.04 h -210.77 c -13.19,0 -23.97,10.79 -23.97,23.97 v 12.07 c 0,13.18 10.78,23.96 23.97,23.96 h 210.77 c 13.19,0 23.97,-10.78 23.97,-23.96 v -12.07 c 0,-13.18 -10.78,-23.97 -23.97,-23.97"
         style="fill:#f3f2f1;fill-opacity:1;fill-rule:nonzero;stroke:none"
         id="path76" /><path
         d="m 1603,2092.36 h 199.832 v 54.1016 H 1603 Z"
         style="fill:#e7e8e5;fill-opacity:1;fill-rule:nonzero;stroke:none"
         id="path78" /><path
         d="m 1802.83,2160.46 h -593.12 v -14 h 593.12 v 14"
         style="fill:#dadbd8;fill-opacity:1;fill-rule:nonzero;stroke:none"
         id="path80" /><path
         d="m 911.238,1823.9 h 996.602 v 268.461 H 911.238 Z"
         style="fill:#ededeb;fill-opacity:1;fill-rule:nonzero;stroke:none"
         id="path82" /><path
         d="m 987.605,2092.36 h 843.863 v 13.6797 H 987.605 Z"
         style="fill:#dadbd8;fill-opacity:1;fill-rule:nonzero;stroke:none"
         id="path84" /><path
         d="m 911.238,1823.9 h 268.473 v 268.461 H 911.238 Z"
         style="fill:#dadbd8;fill-opacity:1;fill-rule:nonzero;stroke:none"
         id="path86" /><path
         d="m 1236.52,2106.03 8.35,40.42 h -16.7 z"
         style="fill:#dadbd8;fill-opacity:1;fill-rule:nonzero;stroke:none"
         id="path88" /><path
         d="m 2887.61,653.992 h 1299.25 v 2849.36 H 2887.61 Z"
         style="fill:#e2e2e0;fill-opacity:1;fill-rule:nonzero;stroke:none"
         id="path90" /><path
         d="m 2903.98,653.992 h 1343.64 v 2849.36 H 2903.98 Z"
         style="fill:#f3f2f1;fill-opacity:1;fill-rule:nonzero;stroke:none"
         id="path92" /><path
         d="m 3020.62,770.641 h 1110.36 v 2616.07 H 3020.62 Z"
         style="fill:#ffffff;fill-opacity:1;fill-rule:nonzero;stroke:none"
         id="path94" /><path
         d="m 3964.3,2907.27 c 0,-214.56 -173.94,-388.49 -388.49,-388.49 -214.56,0 -388.5,173.93 -388.5,388.49 0,214.56 173.94,388.49 388.5,388.49 214.55,0 388.49,-173.93 388.49,-388.49"
         style="fill:#ededeb;fill-opacity:1;fill-rule:nonzero;stroke:none"
         id="path96" /><path
         d="m 3946.19,2907.27 c 0,-204.56 -165.83,-370.38 -370.38,-370.38 -204.57,0 -370.39,165.82 -370.39,370.38 0,204.56 165.82,370.39 370.39,370.39 204.55,0 370.38,-165.83 370.38,-370.39"
         style="fill:#dadbd8;fill-opacity:1;fill-rule:nonzero;stroke:none"
         id="path98" /><path
         d="m 3683.33,2907.27 c 0,-59.39 -48.14,-107.53 -107.52,-107.53 -59.39,0 -107.54,48.14 -107.54,107.53 0,59.39 48.15,107.53 107.54,107.53 59.38,0 107.52,-48.14 107.52,-107.53"
         style="fill:#ffffff;fill-opacity:1;fill-rule:nonzero;stroke:none"
         id="path100" /><path
         d="m 3533.28,2249.49 h -231.11 v 231.11 h 231.11 v -231.11"
         style="fill:#f3f2f1;fill-opacity:1;fill-rule:nonzero;stroke:none"
         id="path102" /><path
         d="m 3849.43,2249.49 h -231.1 v 231.11 h 231.1 v -231.11"
         style="fill:#e2e2e0;fill-opacity:1;fill-rule:nonzero;stroke:none"
         id="path104" /><path
         d="m 3964.3,1583.18 c 0,-214.55 -173.94,-388.49 -388.49,-388.49 -214.56,0 -388.5,173.94 -388.5,388.49 0,214.56 173.94,388.5 388.5,388.5 214.55,0 388.49,-173.94 388.49,-388.5"
         style="fill:#ededeb;fill-opacity:1;fill-rule:nonzero;stroke:none"
         id="path106" /><path
         d="m 3946.19,1583.18 c 0,-204.55 -165.83,-370.38 -370.38,-370.38 -204.56,0 -370.39,165.83 -370.39,370.38 0,204.56 165.83,370.39 370.39,370.39 204.55,0 370.38,-165.83 370.38,-370.39"
         style="fill:#e2e2e0;fill-opacity:1;fill-rule:nonzero;stroke:none"
         id="path108" /><path
         d="m 3683.33,1583.18 c 0,-59.38 -48.14,-107.52 -107.52,-107.52 -59.39,0 -107.54,48.14 -107.54,107.52 0,59.39 48.15,107.54 107.54,107.54 59.38,0 107.52,-48.15 107.52,-107.54"
         style="fill:#ffffff;fill-opacity:1;fill-rule:nonzero;stroke:none"
         id="path110" /><path
         d="m 3618.33,925.41 h 231.1 v 231.11 h -231.1 V 925.41"
         style="fill:#f3f2f1;fill-opacity:1;fill-rule:nonzero;stroke:none"
         id="path112" /><path
         d="m 3302.17,925.41 h 231.11 v 231.11 H 3302.17 V 925.41"
         style="fill:#e2e2e0;fill-opacity:1;fill-rule:nonzero;stroke:none"
         id="path114" /><path
         d="M 4438.89,113.238 C 4438.89,50.6992 3570.83,0 2500,0 1429.18,0 561.109,50.6992 561.109,113.238 c 0,62.532 868.071,113.231 1938.891,113.231 1070.83,0 1938.89,-50.699 1938.89,-113.231"
         style="fill:#f3f2f1;fill-opacity:1;fill-rule:nonzero;stroke:none"
         id="path116" /><path
         d="m 1431.33,2529.98 c -147.06,0 -294.17,26.21 -440.826,89.49 h 20.296 c 139.82,-57.51 280.19,-81.52 420.52,-81.52 162.34,0 324.63,32.08 486.28,81.52 h 26.57 c -170.34,-53.93 -341.55,-89.49 -512.84,-89.49 m 723.17,164.43 h -21.77 c 38.71,14.9 77.32,30.41 115.9,46.36 -1.41,-3.41 -2.77,-6.81 -4.08,-10.19 -29.98,-12.35 -59.99,-24.44 -90.05,-36.17 m 607.53,259.03 c 1.65,3.44 3.12,6.87 4.39,10.32 40.32,16.65 80.73,32.85 121.19,48.35 v -8.42 c -41.92,-16.09 -83.81,-32.94 -125.58,-50.25"
         style="fill:#9ba6a7;fill-opacity:1;fill-rule:nonzero;stroke:none"
         id="path118" /><path
         d="m 901.809,2662.39 c -12.364,6.64 -24.719,13.56 -37.071,20.77 -1.875,1.09 -2.504,3.5 -1.41,5.37 0.719,1.25 2.035,1.95 3.387,1.95 0.676,0 1.359,-0.18 1.984,-0.54 11.02,-6.43 22.082,-12.65 33.11,-18.62 v -8.93"
         style="fill:#8a9596;fill-opacity:1;fill-rule:nonzero;stroke:none"
         id="path120" /><path
         d="m 1944.17,2619.47 h -26.57 c 71.86,21.98 143.62,47.4 215.13,74.94 h 21.77 c -69.92,-27.3 -140.05,-52.69 -210.33,-74.94 m -933.37,0 h -20.296 c -29.59,12.77 -59.149,27.04 -88.695,42.92 v 8.93 c 36.304,-19.67 72.605,-36.88 108.991,-51.85"
         style="fill:#939e9f;fill-opacity:1;fill-rule:nonzero;stroke:none"
         id="path122" /><path
         d="m 2887.61,3003.69 v 8.42 c 5.46,2.09 10.91,4.16 16.37,6.23 v -8.41 c -5.47,-2.07 -10.89,-4.14 -16.37,-6.24"
         style="fill:#8a9596;fill-opacity:1;fill-rule:nonzero;stroke:none"
         id="path124" /><path
         d="m 2903.98,3009.93 v 8.41 c 38.82,14.68 77.72,28.7 116.64,41.85 v -8.31 c -38.94,-13.19 -77.8,-27.23 -116.64,-41.95"
         style="fill:#939e9f;fill-opacity:1;fill-rule:nonzero;stroke:none"
         id="path126" /><path
         d="m 4089.15,3038.68 c -0.6,0 -1.21,0.14 -1.78,0.42 -60.42,30.82 -120.93,54.97 -181.56,73.26 -2.13,3.43 -4.32,6.82 -6.56,10.18 63.99,-18.72 127.89,-43.9 191.7,-76.43 1.93,-0.99 2.69,-3.36 1.71,-5.29 -0.7,-1.37 -2.08,-2.14 -3.51,-2.14 m -1068.53,13.2 v 8.31 c 78.11,26.37 156.41,49.23 234.84,66.93 -2.17,-3.15 -4.3,-6.34 -6.37,-9.56 -76.28,-17.55 -152.47,-39.96 -228.47,-65.68"
         style="fill:#9ba6a6;fill-opacity:1;fill-rule:nonzero;stroke:none"
         id="path128" /><path
         d="m 3905.81,3112.36 c -8.91,2.69 -17.9,5.27 -26.82,7.71 -2.41,3.43 -4.87,6.81 -7.4,10.16 9.23,-2.43 18.44,-5 27.66,-7.69 2.24,-3.36 4.43,-6.75 6.56,-10.18 m -656.72,5.2 c 2.07,3.22 4.2,6.41 6.37,9.56 8.86,2 17.74,3.94 26.61,5.8 -2.43,-3.16 -4.82,-6.37 -7.15,-9.61 -8.61,-1.85 -17.23,-3.77 -25.83,-5.75"
         style="fill:#909b9c;fill-opacity:1;fill-rule:nonzero;stroke:none"
         id="path130" /><path
         d="m 3878.99,3120.07 c -97.9,26.76 -195.99,38.49 -294.14,38.49 -103.34,0 -206.72,-13.02 -309.93,-35.25 2.33,3.24 4.72,6.45 7.15,9.61 100.78,21.21 201.76,33.58 302.73,33.58 95.66,0 191.27,-11.09 286.79,-36.27 2.53,-3.35 4.99,-6.73 7.4,-10.16"
         style="fill:#889194;fill-opacity:1;fill-rule:nonzero;stroke:none"
         id="path132" /><path
         d="m 1431.26,2373.65 c -184.11,0 -368.23,41.06 -551.475,144.56 -1.883,1.07 -2.558,3.47 -1.484,5.36 0.719,1.27 2.051,1.99 3.422,1.99 0.652,0 1.316,-0.16 1.929,-0.51 181.768,-102.66 364.678,-143.44 547.608,-143.44 267.6,0 535.28,87.24 799.77,195.61 -0.99,-3.23 -1.96,-6.46 -2.93,-9.69 -263.41,-107.61 -530.06,-193.88 -796.84,-193.88 m 1276,400.51 c -3.93,1.03 -8.1,2.11 -12.48,3.23 64.09,27.28 128.36,53.72 192.83,78.41 v -8.42 c -60.28,-23.14 -120.4,-47.8 -180.35,-73.22"
         style="fill:#9ba6a7;fill-opacity:1;fill-rule:nonzero;stroke:none"
         id="path134" /><path
         d="m 2887.61,2847.38 v 8.42 c 5.45,2.09 10.93,4.18 16.37,6.24 v -8.42 c -5.46,-2.07 -10.91,-4.15 -16.37,-6.24"
         style="fill:#8a9596;fill-opacity:1;fill-rule:nonzero;stroke:none"
         id="path136" /><path
         d="m 2903.98,2853.62 v 8.42 c 38.83,14.68 77.71,28.7 116.64,41.84 v -8.33 c -38.95,-13.18 -77.79,-27.21 -116.64,-41.93"
         style="fill:#939e9f;fill-opacity:1;fill-rule:nonzero;stroke:none"
         id="path138" /><path
         d="m 4104.16,2874.59 c -0.62,0 -1.25,0.14 -1.84,0.45 -46.32,24.46 -92.68,44.97 -139.14,61.89 -0.22,2.89 -0.47,5.78 -0.75,8.66 47.9,-17.28 95.78,-38.36 143.57,-63.6 1.91,-1.01 2.65,-3.39 1.64,-5.31 -0.71,-1.34 -2.07,-2.09 -3.48,-2.09 m -1083.54,20.96 v 8.33 c 56.43,19.05 112.97,36.28 169.58,51.04 -0.34,-2.8 -0.65,-5.61 -0.94,-8.43 -56.26,-14.75 -112.54,-31.95 -168.64,-50.94"
         style="fill:#9ba6a6;fill-opacity:1;fill-rule:nonzero;stroke:none"
         id="path140" /><path
         d="m 3963.18,2936.93 c -6.23,2.27 -12.52,4.5 -18.75,6.64 -0.28,2.89 -0.6,5.78 -0.94,8.65 6.33,-2.15 12.61,-4.34 18.94,-6.63 0.28,-2.88 0.53,-5.77 0.75,-8.66 m -773.92,9.56 c 0.29,2.82 0.6,5.63 0.94,8.43 6.3,1.64 12.61,3.26 18.91,4.84 -0.4,-2.8 -0.76,-5.63 -1.1,-8.45 -6.27,-1.58 -12.47,-3.18 -18.75,-4.82"
         style="fill:#909b9c;fill-opacity:1;fill-rule:nonzero;stroke:none"
         id="path142" /><path
         d="m 3944.43,2943.57 c -105.37,36.19 -210.98,54.12 -316.69,57.88 -6.28,3.47 -12.95,6.34 -19.92,8.5 111.98,-2.1 223.93,-19.75 335.67,-57.73 0.34,-2.87 0.66,-5.76 0.94,-8.65 m -736.42,7.74 c 0.34,2.82 0.7,5.65 1.1,8.45 110.84,27.81 221.95,45.94 333.1,49.69 -6.92,-2.27 -13.52,-5.23 -19.74,-8.79 -104.88,-5.16 -209.81,-22.94 -314.46,-49.35"
         style="fill:#889194;fill-opacity:1;fill-rule:nonzero;stroke:none"
         id="path144" /><path
         d="m 3522.47,3000.66 c 6.22,3.56 12.82,6.52 19.74,8.79 14.17,0.48 28.37,0.72 42.54,0.72 7.69,0 15.38,-0.07 23.07,-0.22 6.97,-2.16 13.64,-5.03 19.92,-8.5 -14.3,0.51 -28.63,0.76 -42.93,0.76 -20.79,0 -41.55,-0.53 -62.34,-1.55"
         style="fill:#9ba6a6;fill-opacity:1;fill-rule:nonzero;stroke:none"
         id="path146" /><path
         d="m 1431.19,2217.31 c -179.07,0 -358.12,38.86 -536.354,136.24 -1.906,1.04 -2.609,3.43 -1.563,5.33 0.715,1.31 2.067,2.05 3.454,2.05 0.636,0 1.281,-0.16 1.878,-0.48 176.775,-96.6 354.625,-135.18 532.545,-135.18 254.38,0 508.87,78.85 760.6,179.74 0.06,-0.53 0.13,-1.06 0.2,-1.59 0.31,-1.92 0.82,-4.16 1.42,-6.24 -252.12,-100.98 -507.12,-179.87 -762.18,-179.87 m 1397.07,450.51 c -1.52,1.88 -3.27,4.02 -5.21,6.38 21.49,8.6 43.03,17.06 64.56,25.31 v -8.43 c -19.79,-7.59 -39.59,-15.37 -59.35,-23.26"
         style="fill:#9ba6a7;fill-opacity:1;fill-rule:nonzero;stroke:none"
         id="path148" /><path
         d="m 2887.61,2691.08 v 8.43 c 5.47,2.09 10.91,4.16 16.37,6.23 v -8.41 c -5.48,-2.08 -10.89,-4.15 -16.37,-6.25"
         style="fill:#8a9596;fill-opacity:1;fill-rule:nonzero;stroke:none"
         id="path150" /><path
         d="m 2903.98,2697.33 v 8.41 c 32.18,12.17 64.38,23.87 96.64,35.01 1.44,-2.26 2.96,-4.52 4.53,-6.77 -33.74,-11.62 -67.5,-23.9 -101.17,-36.65 m 106.55,38.49 c -1.6,2.25 -3.14,4.5 -4.6,6.76 4.89,1.68 9.8,3.35 14.69,5 v -8.32 c -3.36,-1.14 -6.72,-2.28 -10.09,-3.44"
         style="fill:#939e9f;fill-opacity:1;fill-rule:nonzero;stroke:none"
         id="path152" /><path
         d="m 4119.14,2710.23 c -0.64,0 -1.28,0.15 -1.87,0.48 -57.22,31.26 -114.56,56.45 -171.97,76.22 0.81,2.5 1.6,5.02 2.36,7.53 57.87,-19.92 115.66,-45.32 173.38,-76.86 1.9,-1.04 2.6,-3.42 1.56,-5.33 -0.72,-1.31 -2.07,-2.04 -3.46,-2.04 m -1098.52,29.03 v 8.32 c 60.3,20.36 120.72,38.63 181.23,54.04 0.71,-2.54 1.46,-5.09 2.23,-7.6 -61.23,-15.58 -122.42,-34.11 -183.46,-54.76"
         style="fill:#9ba6a6;fill-opacity:1;fill-rule:nonzero;stroke:none"
         id="path154" /><path
         d="m 3945.3,2786.93 c -5.74,1.98 -11.44,3.89 -17.18,5.75 0.81,2.51 1.6,5.02 2.36,7.54 5.74,-1.87 11.45,-3.78 17.18,-5.76 -0.76,-2.51 -1.55,-5.03 -2.36,-7.53 m -741.22,7.09 c -0.77,2.51 -1.52,5.06 -2.23,7.6 5.86,1.49 11.72,2.96 17.58,4.4 0.72,-2.55 1.47,-5.09 2.25,-7.61 -5.88,-1.44 -11.73,-2.9 -17.6,-4.39"
         style="fill:#909b9c;fill-opacity:1;fill-rule:nonzero;stroke:none"
         id="path156" /><path
         d="m 3928.12,2792.68 c -88.44,28.8 -177.14,44.9 -265.82,50.7 1.82,2.46 3.55,5.01 5.16,7.62 87.75,-6.09 175.43,-22.25 263.02,-50.78 -0.76,-2.52 -1.55,-5.03 -2.36,-7.54 m -706.44,5.73 c -0.78,2.52 -1.53,5.06 -2.25,7.61 88.29,21.66 176.86,37.1 265.38,43.92 1.65,-2.61 3.4,-5.14 5.26,-7.58 -89.55,-6.58 -179.03,-22.05 -268.39,-43.95"
         style="fill:#889194;fill-opacity:1;fill-rule:nonzero;stroke:none"
         id="path158" /><path
         d="m 3490.07,2842.36 c -1.86,2.44 -3.61,4.97 -5.26,7.58 33.3,2.56 66.55,3.9 99.86,3.9 27.59,0 55.2,-0.92 82.79,-2.84 -1.61,-2.61 -3.34,-5.16 -5.16,-7.62 -25.87,1.69 -51.71,2.5 -77.59,2.5 -31.54,0 -63.1,-1.21 -94.64,-3.52"
         style="fill:#9ba6a6;fill-opacity:1;fill-rule:nonzero;stroke:none"
         id="path160" /><path
         d="m 1431.13,2060.98 c -83.84,0 -167.68,8.52 -251.42,27.58 v 3.8 h -16.14 v 0 h 35.84 c 77.16,-16.15 154.41,-23.43 231.69,-23.43 83.4,0 166.81,8.48 250.15,23.43 h 42.05 c -97.27,-19.86 -194.73,-31.38 -292.17,-31.38"
         style="fill:#909b9c;fill-opacity:1;fill-rule:nonzero;stroke:none"
         id="path162" /><path
         d="m 1802.83,2110.41 v 8.15 c 188.61,47.09 376.42,122.4 562.4,202.66 0.15,-2.79 0.3,-5.58 0.43,-8.37 -186.06,-80.24 -374.05,-155.46 -562.83,-202.44 m 949.78,370.21 c 0.21,2.94 0.41,5.87 0.6,8.75 29.37,12.21 58.83,24.2 88.27,35.86 3.01,-1.66 6.03,-3.28 9.06,-4.88 -32.7,-12.89 -65.32,-26.16 -97.93,-39.73"
         style="fill:#9ba6a7;fill-opacity:1;fill-rule:nonzero;stroke:none"
         id="path164" /><path
         d="m 1784.93,2106.04 h -35.34 c 17.73,3.91 35.52,8.1 53.24,12.52 v -8.15 c -5.97,-1.49 -11.93,-2.94 -17.9,-4.37"
         style="fill:#8d989a;fill-opacity:1;fill-rule:nonzero;stroke:none"
         id="path166" /><path
         d="m 1142.02,2106.04 h -29.11 c -67.76,20.09 -135.461,47.44 -203.027,83.13 -1.914,1.01 -2.656,3.39 -1.641,5.3 0.699,1.34 2.071,2.1 3.481,2.1 0.621,0 1.25,-0.15 1.832,-0.46 75.98,-40.12 152.165,-69.63 228.465,-90.07"
         style="fill:#9ba6a7;fill-opacity:1;fill-rule:nonzero;stroke:none"
         id="path168" /><path
         d="m 1723.3,2092.36 h -42.05 c 22.78,4.09 45.56,8.66 68.34,13.68 h 35.34 c -20.54,-4.91 -41.08,-9.48 -61.63,-13.68 m -523.89,0 h -35.84 c -16.9,4.13 -33.77,8.67 -50.66,13.68 h 29.11 c 19.12,-5.12 38.26,-9.67 57.39,-13.68"
         style="fill:#889194;fill-opacity:1;fill-rule:nonzero;stroke:none"
         id="path170" /><path
         d="m 1179.71,2088.56 c -5.38,1.22 -10.77,2.49 -16.14,3.8 h 16.14 v -3.8"
         style="fill:#889194;fill-opacity:1;fill-rule:nonzero;stroke:none"
         id="path172" /><path
         d="m 4134.15,2545.6 c -0.66,0 -1.32,0.16 -1.93,0.5 -0.43,0.24 -0.81,0.46 -1.24,0.7 v 9.01 c 1.69,-0.94 3.41,-1.91 5.1,-2.86 1.89,-1.07 2.56,-3.47 1.49,-5.36 -0.72,-1.28 -2.05,-1.99 -3.42,-1.99 m -1173.09,16.52 -7.99,3.83 c -0.65,0.31 -1.3,0.63 -1.95,0.95 23.15,8.4 46.31,16.54 69.5,24.36 v -8.32 c -19.87,-6.72 -39.72,-13.67 -59.56,-20.82"
         style="fill:#939e9f;fill-opacity:1;fill-rule:nonzero;stroke:none"
         id="path174" /><path
         d="m 4130.98,2546.8 c -86.78,48.87 -173.88,83.68 -261.05,106.66 1.91,2.2 3.8,4.45 5.66,6.7 85.27,-22.83 170.41,-56.89 255.39,-104.35 v -9.01 m -1110.36,36.14 v 8.32 c 5.01,1.69 10.02,3.37 15.03,5.03 -3.62,-4.16 -7.29,-8.18 -10.99,-11.98 -1.36,-0.46 -2.68,-0.91 -4.04,-1.37 m 105.98,33.53 c 1.49,3.16 2.94,6.33 4.37,9.5 47.71,13.84 95.47,26.07 143.28,36.34 1.89,-2.31 3.8,-4.61 5.73,-6.88 -51.17,-10.86 -102.32,-24.01 -153.38,-38.96"
         style="fill:#9ba6a6;fill-opacity:1;fill-rule:nonzero;stroke:none"
         id="path176" /><path
         d="m 3869.93,2653.46 c -6.59,1.74 -13.16,3.4 -19.75,5.01 2.01,2.21 3.99,4.45 5.94,6.71 6.5,-1.61 12.97,-3.28 19.47,-5.02 -1.86,-2.25 -3.75,-4.5 -5.66,-6.7 m -589.95,1.97 c -1.93,2.27 -3.84,4.57 -5.73,6.88 6.69,1.44 13.39,2.84 20.08,4.2 1.98,-2.31 4,-4.61 6.04,-6.87 -6.8,-1.37 -13.59,-2.77 -20.39,-4.21"
         style="fill:#909b9c;fill-opacity:1;fill-rule:nonzero;stroke:none"
         id="path178" /><path
         d="m 3850.18,2658.47 c -88.41,21.5 -176.99,31.07 -265.55,31.07 -94.8,0 -189.58,-10.95 -284.26,-29.9 -2.04,2.26 -4.06,4.56 -6.04,6.87 96.66,19.63 193.46,30.99 290.29,30.99 90.54,0 181.05,-9.92 271.5,-32.32 -1.95,-2.26 -3.93,-4.5 -5.94,-6.71"
         style="fill:#889194;fill-opacity:1;fill-rule:nonzero;stroke:none"
         id="path180" /><path
         d="m 1907.84,1983.03 v 8.24 c 173.4,52.3 346,124.86 516.87,199.49 v -8.57 c -170.83,-74.59 -343.44,-147.01 -516.87,-199.16 m 519.37,200.25 v 8.57 c 14.79,6.47 29.55,12.94 44.32,19.42 0.5,-2.5 1.03,-5.12 1.59,-7.88 -15.3,-6.72 -30.59,-13.42 -45.91,-20.11 m 310.23,134.7 c 0.34,2.99 0.68,5.98 1.01,8.94 2.35,0.99 4.78,2 7.13,2.98 1.54,-2.22 3.07,-4.41 4.63,-6.59 -4.23,-1.76 -8.54,-3.56 -12.77,-5.33 m 17.95,7.49 c -1.56,2.16 -3.12,4.37 -4.65,6.58 45.53,18.94 91.16,37.34 136.87,54.85 v -8.43 c -44.16,-16.95 -88.23,-34.71 -132.22,-53"
         style="fill:#9ba6a7;fill-opacity:1;fill-rule:nonzero;stroke:none"
         id="path182" /><path
         d="m 2424.71,2182.19 v 8.57 c 0.82,0.36 1.67,0.73 2.5,1.09 v -8.57 c -0.83,-0.36 -1.68,-0.73 -2.5,-1.09"
         style="fill:#8d989a;fill-opacity:1;fill-rule:nonzero;stroke:none"
         id="path184" /><path
         d="m 1431.06,1904.65 c -83.82,0 -167.63,8.52 -251.35,27.57 v 8.11 c 83.66,-19.16 167.48,-27.73 251.29,-27.73 159.11,0 318.29,30.86 476.84,78.67 v -8.24 c -158.47,-47.66 -317.61,-78.38 -476.78,-78.38"
         style="fill:#909b9c;fill-opacity:1;fill-rule:nonzero;stroke:none"
         id="path186" /><path
         d="m 1179.71,1932.22 c -85.05,19.36 -170.01,49.6 -254.776,92.83 -1.938,0.99 -2.7,3.35 -1.711,5.29 0.703,1.36 2.078,2.14 3.504,2.14 0.597,0 1.207,-0.14 1.781,-0.43 83.532,-42.61 167.292,-72.49 251.202,-91.72 v -8.11"
         style="fill:#889194;fill-opacity:1;fill-rule:nonzero;stroke:none"
         id="path188" /><path
         d="m 2887.61,2378.47 v 8.43 c 5.47,2.09 10.91,4.16 16.37,6.23 v -8.42 c -5.44,-2.06 -10.92,-4.15 -16.37,-6.24"
         style="fill:#8a9596;fill-opacity:1;fill-rule:nonzero;stroke:none"
         id="path190" /><path
         d="m 4149.15,2380.68 c -0.68,0 -1.36,0.18 -1.98,0.54 -5.39,3.14 -10.8,6.24 -16.19,9.28 v 9.01 c 6.73,-3.76 13.42,-7.58 20.15,-11.51 1.88,-1.09 2.5,-3.5 1.41,-5.37 -0.73,-1.25 -2.04,-1.95 -3.39,-1.95 m -1245.17,4.03 v 8.42 c 38.81,14.67 77.73,28.7 116.64,41.84 v -8.33 c -38.93,-13.18 -77.8,-27.22 -116.64,-41.93"
         style="fill:#939e9f;fill-opacity:1;fill-rule:nonzero;stroke:none"
         id="path192" /><path
         d="m 4130.98,2390.5 c -153.2,86.24 -307.25,128.59 -461.35,139.68 7.47,1.85 14.84,3.92 22.13,6.2 146.63,-13.34 293.22,-55.39 439.22,-136.87 v -9.01 m -1110.36,36.14 v 8.33 c 36.81,12.42 73.58,24.04 110.47,34.74 0.37,-2.65 0.71,-5.31 1.02,-7.94 -37.18,-10.79 -74.38,-22.58 -111.49,-35.13 m 117.6,36.89 c -0.31,2.64 -0.65,5.28 -1.02,7.94 108.33,31.09 216.98,53.87 325.73,63.96 7.43,-2.25 14.92,-4.28 22.52,-6.09 -115.92,-8.89 -231.69,-32.61 -347.23,-65.81"
         style="fill:#9ba6a6;fill-opacity:1;fill-rule:nonzero;stroke:none"
         id="path194" /><path
         d="m 3485.45,2529.34 c -7.6,1.81 -15.09,3.84 -22.52,6.09 21.77,2.01 43.51,3.52 65.28,4.49 15.59,-2 31.46,-3.03 47.6,-3.03 17.45,0 34.62,1.2 51.43,3.54 21.51,-0.76 43.02,-2.1 64.52,-4.05 -7.29,-2.28 -14.66,-4.35 -22.13,-6.2 -28.37,2.04 -56.69,3.02 -85.07,3.02 -33.03,0 -66.08,-1.33 -99.11,-3.86"
         style="fill:#909b9c;fill-opacity:1;fill-rule:nonzero;stroke:none"
         id="path196" /><path
         d="m 3575.81,2536.89 c -16.14,0 -32.01,1.03 -47.6,3.03 18.78,0.83 37.55,1.25 56.33,1.25 14.23,0 28.46,-0.24 42.7,-0.74 -16.81,-2.34 -33.98,-3.54 -51.43,-3.54"
         style="fill:#889194;fill-opacity:1;fill-rule:nonzero;stroke:none"
         id="path198" /><path
         d="m 1277.6,2255.39 c -5.44,19.99 -15.2,28.09 -24.65,35.91 -10.63,8.81 -20.66,17.21 -24.83,43.12 l 2.08,5.84 c 0.72,2.05 -0.35,4.29 -2.39,5.01 -2.04,0.73 -4.28,-0.34 -5.01,-2.38 l -80.63,-227.06 c -2.21,5.1 -5.76,10.07 -10.66,14.68 -9.88,9.31 -24.03,16.12 -39.82,19.2 -33.25,6.49 -63.75,-5.9 -67.99,-27.62 -3.66,-18.7 13.33,-38.32 39.34,-47.56 4.2,-1.49 8.63,-2.71 13.26,-3.62 15.8,-3.08 31.47,-2.09 44.12,2.81 13.04,5.05 21.42,13.64 23.72,24.24 l 0.01,0.01 56.51,159.12 c 5.37,-20.67 15.24,-28.93 24.87,-36.9 10.99,-9.11 21.37,-17.72 25.26,-45.76 0.15,-1.11 0.91,-2.03 1.94,-2.39 l 0.7,-0.16 c 1.37,-0.14 2.65,0.67 3.11,1.97 l 19.94,56.16 c 2.98,8.36 3.36,17.13 1.12,25.38"
         style="fill:#17282f;fill-opacity:1;fill-rule:nonzero;stroke:none"
         id="path200" /><path
         d="m 3513.01,2694.94 c -16.26,13.04 -28.99,13.85 -41.31,14.63 -13.86,0.87 -27,1.75 -45.72,20.36 l -1.78,5.98 c -0.62,2.09 -2.81,3.28 -4.9,2.66 -2.09,-0.62 -3.28,-2.81 -2.66,-4.9 l 68.85,-232.42 c -4.82,2.84 -10.65,4.79 -17.36,5.64 -13.55,1.7 -29.09,-1.12 -43.75,-7.97 -30.89,-14.4 -48.36,-42.54 -38.96,-62.72 8.11,-17.38 33.54,-23.27 60.17,-15.39 4.29,1.28 8.62,2.91 12.93,4.91 14.67,6.84 26.82,16.94 34.21,28.41 7.63,11.82 9.35,23.78 4.95,33.76 l -0.01,0.01 -48.25,162.87 c 16.61,-13.63 29.53,-14.49 42.08,-15.29 14.33,-0.9 27.87,-1.75 47.63,-22.25 0.79,-0.82 1.95,-1.11 3.01,-0.8 l 0.65,0.29 c 1.2,0.69 1.77,2.11 1.37,3.44 l -17.03,57.48 c -2.53,8.56 -7.41,15.93 -14.12,21.3"
         style="fill:#17282f;fill-opacity:1;fill-rule:nonzero;stroke:none"
         id="path202" /><path
         d="m 1964.48,2299.12 c 16.32,-8.07 31.73,-15.7 44.79,-49.34 0.52,-1.35 1.74,-2.25 3.13,-2.41 l 0.9,0.02 c 1.74,0.23 3.09,1.61 3.28,3.35 l 5.29,48.47 c 1.22,11.24 -0.88,22.24 -6.08,31.82 -12.63,23.2 -27.12,30.37 -41.14,37.31 -15.77,7.8 -30.7,15.26 -43.48,46.19 l 0.86,7.85 c 0.29,2.75 -1.69,5.21 -4.43,5.52 -2.75,0.29 -5.22,-1.69 -5.52,-4.44 l -33.28,-305.38 c -4.23,5.68 -10.1,10.8 -17.53,15.08 -15,8.63 -34.57,12.91 -55.04,12.11 -20.51,-0.81 -39.65,-6.66 -53.91,-16.45 -14.97,-10.27 -22.89,-23.7 -22.32,-37.8 0.55,-14.1 9.52,-26.86 25.26,-35.91 10.56,-6.08 23.39,-10.01 37.21,-11.52 5.8,-0.63 11.77,-0.84 17.83,-0.6 42.77,1.71 76.69,25.63 76.2,53.5 l 0.01,0.02 14.23,130.61 c 12.74,-24.06 27.42,-31.39 41.7,-38.46 16.32,-8.07 31.73,-15.7 44.79,-49.34 0.52,-1.35 1.74,-2.25 3.13,-2.41 l 0.9,0.02 c 1.75,0.23 3.1,1.62 3.29,3.35 l 5.28,48.48 c 1.22,11.23 -0.88,22.23 -6.08,31.81 -12.62,23.2 -27.11,30.37 -41.13,37.31 -15.78,7.81 -30.71,15.27 -43.49,46.19 l 3.65,33.5 c 12.74,-24.05 27.42,-31.39 41.7,-38.45"
         style="fill:#17282f;fill-opacity:1;fill-rule:nonzero;stroke:none"
         id="path204" /><path
         d="m 1523.17,2605.16 0.82,17.21 162.12,-7.73 -0.82,-17.21 z m 161.94,-164.18 v 0.01 l 8.26,173.31 3.09,64.65 0.17,3.63 -176.64,8.42 -0.18,-3.63 -3.08,-64.65 -7.55,-158.49 c -10.17,11.97 -30.85,18.95 -53.85,16.66 -31.23,-3.16 -54.95,-22.33 -52.89,-42.73 1.77,-17.57 22.1,-30.42 47.64,-31.64 4.13,-0.19 8.39,-0.08 12.74,0.36 30.94,3.13 54.49,21.98 52.91,42.17 v 0.01 l 7.1,148.84 162.12,-7.73 -6.39,-133.87 c -3.32,3.94 -7.8,7.39 -13.38,10.16 -11.26,5.6 -25.63,7.85 -40.47,6.35 -31.22,-3.16 -54.95,-22.32 -52.89,-42.73 1.77,-17.56 22.1,-30.41 47.64,-31.63 4.13,-0.2 8.39,-0.09 12.74,0.35 30.94,3.13 54.49,21.98 52.91,42.18"
         style="fill:#17282f;fill-opacity:1;fill-rule:nonzero;stroke:none"
         id="path206" /><path
         d="m 3927.65,2916.2 1.69,13.8 130,-15.9 -1.69,-13.8 z m 120.51,-141.79 v 0.02 l 17,138.96 6.34,51.84 0.36,2.91 -141.64,17.33 -0.36,-2.91 -6.34,-51.85 -15.54,-127.08 c -7.47,10.24 -23.69,17.09 -42.34,16.62 -25.32,-0.68 -45.56,-14.69 -45.11,-31.23 0.37,-14.24 15.96,-25.79 36.45,-28.3 3.31,-0.4 6.74,-0.57 10.27,-0.47 25.08,0.66 45.16,14.43 45.09,30.77 v 0.02 l 14.6,119.34 130,-15.9 -13.13,-107.34 c -2.44,3.36 -5.84,6.41 -10.16,8.97 -8.73,5.18 -20.16,7.85 -32.19,7.53 -25.32,-0.68 -45.56,-14.68 -45.11,-31.23 0.37,-14.24 15.96,-25.79 36.45,-28.3 3.31,-0.4 6.74,-0.57 10.27,-0.48 25.08,0.67 45.16,14.44 45.09,30.78"
         style="fill:#17282f;fill-opacity:1;fill-rule:nonzero;stroke:none"
         id="path208" /><path
         d="m 3527.92,3094.09 -0.01,0.02 -84.48,173.62 -31.52,64.77 -1.76,3.63 -176.97,-86.11 1.77,-3.63 31.51,-64.77 77.26,-158.77 c -16.33,6.26 -40.26,2.05 -61.47,-12.5 -28.8,-19.76 -41.74,-51.15 -28.83,-69.97 11.12,-16.2 37.83,-17.89 63.42,-5.43 4.13,2 8.24,4.39 12.24,7.14 28.55,19.58 41.47,50.55 29.14,69.43 l -0.01,0.02 -84.47,173.61 162.42,79.03 77.25,-158.76 c -16.32,6.26 -40.24,2.06 -61.46,-12.5 -13.69,-9.38 -24.28,-21.63 -29.82,-34.48 -5.82,-13.47 -5.47,-26.08 0.99,-35.48 6.45,-9.42 18.09,-14.29 32.76,-13.71 9.85,0.39 20.32,3.21 30.43,8.13 4.24,2.07 8.43,4.5 12.47,7.27 28.54,19.58 41.46,50.56 29.14,69.44"
         style="fill:#17282f;fill-opacity:1;fill-rule:nonzero;stroke:none"
         id="path210" /><path
         d="m 2945.33,2216.28 c -8.38,0 -17.12,0.34 -26.25,1.07 -60.56,4.81 -113.9,35.87 -158.57,92.3 -134.3,169.7 -150.54,513.12 -137.34,599 l 5.39,-0.83 c -13.11,-85.31 2.97,-426.39 136.23,-594.78 43.69,-55.19 95.75,-85.56 154.72,-90.25 91.45,-7.26 157.76,23.68 191.67,89.51 53.57,103.93 12.68,279.12 -95.11,407.49 -34.58,41.19 -46.28,85.79 -32.09,122.35 10.64,27.41 34.48,46.09 63.78,49.98 38.86,5.18 79.12,-16.19 110.32,-58.62 l -4.39,-3.23 c -29.98,40.75 -68.3,61.34 -105.2,56.44 -27.31,-3.63 -49.52,-21.02 -59.42,-46.54 -13.45,-34.65 -2.08,-77.25 31.18,-116.87 110.91,-132.09 151.19,-305.99 95.79,-413.5 -22.54,-43.73 -70.27,-93.52 -170.71,-93.52"
         style="fill:#406fbf;fill-opacity:1;fill-rule:nonzero;stroke:none"
         id="path212" /><path
         d="m 2415,3254.02 c -70.28,-33.21 -163.7,-57.35 -133.96,-183.07 29.74,-125.71 -49.42,-163.02 10.18,-212.15 59.59,-49.13 266.85,-44.6 346.64,-13.64 89.9,34.88 194.19,152.77 92.59,213.08 -79.17,47.01 -113.52,107.78 -125.09,144.78 -23.61,75.49 -104.53,118.18 -190.36,51"
         style="fill:#17282f;fill-opacity:1;fill-rule:nonzero;stroke:none"
         id="path214" /><path
         d="m 2806.55,3063.12 c -77.2,15.73 -154.48,44.31 -197.05,146.03 -17.07,40.79 -44.25,66.45 -76.52,72.24 -36.51,6.54 -77.4,-11.95 -114.92,-52.14 l -3.99,3.72 c 38.81,41.59 81.35,60.7 119.87,53.78 34.17,-6.12 62.79,-32.93 80.6,-75.49 41.57,-99.38 117.37,-127.36 193.09,-142.79 l -1.08,-5.35"
         style="fill:#17282f;fill-opacity:1;fill-rule:nonzero;stroke:none"
         id="path216" /><path
         d="m 2777.17,2688.29 3.69,-3.9 4.96,-4.96 c 3.46,-3.36 6.91,-6.84 10.66,-10.19 7.3,-6.8 15.19,-13.35 23.18,-19.78 15.96,-12.95 32.86,-25.25 50.47,-36.67 17.54,-11.51 35.95,-21.98 54.48,-32.32 9.53,-4.72 18.83,-9.9 28.46,-14.52 l 22.47,-10.77 c 1.8,-0.72 4.39,-1.25 9.81,0.34 5.24,1.57 12.09,5.36 18.92,10.58 13.93,10.38 27.91,25.44 40.89,41.59 25.84,32.61 49.85,70.45 71.11,108.02 l 41.93,-17.08 c -14.17,-45.32 -31.85,-88.03 -57.12,-129.82 -12.82,-20.75 -27.22,-41.27 -47.53,-60.38 -10.26,-9.43 -22.18,-18.66 -37.78,-25.82 -15.27,-7.17 -35.94,-11.5 -56.34,-7.62 -5.02,0.9 -9.94,2.22 -14.61,3.89 l -9.22,3.45 -16.64,6.4 c -11.12,4.23 -21.95,9.26 -32.89,14.01 -21.57,10.28 -43.13,20.86 -63.63,33.62 -20.62,12.52 -40.89,25.89 -60.2,41.06 -9.57,7.72 -19.02,15.62 -28.22,24.21 -4.62,4.2 -9.19,8.66 -13.71,13.26 l -6.75,7.25 c -2.41,2.7 -4.2,4.67 -7.52,8.76 l 71.13,57.39"
         style="fill:#f89e63;fill-opacity:1;fill-rule:nonzero;stroke:none"
         id="path218" /><path
         d="m 2704.04,2771.89 c 36.92,9.05 131,-112.6 131,-112.6 l -57.1,-108.69 c 0,0 -157.85,89.16 -151.9,138.24 6.19,51.11 24.12,69.83 78,83.05"
         style="fill:#406fbf;fill-opacity:1;fill-rule:nonzero;stroke:none"
         id="path220" /><path
         d="m 2777.94,2550.6 c 0,0 -8.27,4.67 -20.95,12.46 0,0.02 0,0.05 0,0.07 12.66,-7.8 20.91,-12.48 20.91,-12.48 l 11.93,22.72 -32.34,82.41 c -1.14,36.99 -3.95,62.17 -6.81,78.9 -1.68,9.85 -6.42,18.64 -13.26,25.32 42.43,-29.34 97.62,-100.71 97.62,-100.71 l -8.18,-15.57 -43.18,-82.19 -5.74,-10.93"
         style="fill:#5d87cd;fill-opacity:1;fill-rule:nonzero;stroke:none"
         id="path222" /><path
         d="m 2777.9,2550.65 c 0,0 -8.25,4.68 -20.91,12.48 0.72,20.76 1.03,39.49 1.03,56.35 0,13.21 -0.19,25.28 -0.53,36.3 l 32.34,-82.41 -11.93,-22.72"
         style="fill:#4872c1;fill-opacity:1;fill-rule:nonzero;stroke:none"
         id="path224" /><path
         d="m 3107.99,2692.19 34.38,95.55 48.97,-76.58 c 0,0 -27.44,-50.41 -64.6,-50.15 l -18.75,31.18"
         style="fill:#f89e63;fill-opacity:1;fill-rule:nonzero;stroke:none"
         id="path226" /><path
         d="m 3192.08,2831.89 50.27,-57.28 -51.01,-63.45 -48.97,76.58 49.71,44.15"
         style="fill:#f89e63;fill-opacity:1;fill-rule:nonzero;stroke:none"
         id="path228" /><path
         d="m 2622.12,250.699 89.11,-3.488 15.84,207.019 -89.11,3.5 -15.84,-207.031"
         style="fill:#f89e63;fill-opacity:1;fill-rule:nonzero;stroke:none"
         id="path230" /><path
         d="m 1754.2,1475.95 -17.56,-87.65 197.32,-68.85 17.56,87.65 -197.32,68.85"
         style="fill:#f89e63;fill-opacity:1;fill-rule:nonzero;stroke:none"
         id="path232" /><path
         d="m 1751.76,1375.34 34.09,94.46 c 1.24,3.44 -0.14,7.09 -3.32,8.78 l -70.86,37.73 c -7.34,3.92 -17.09,-0.1 -19.81,-8.08 -11.32,-33.14 -15.11,-49.7 -30.1,-91.24 -9.23,-25.56 -31.83,-73.03 -44.57,-108.32 -12.46,-34.52 21.48,-49.77 29.94,-36.21 37.95,60.77 67.73,75.22 94.39,90.69 4.81,2.79 8.43,7.16 10.24,12.19"
         style="fill:#17282f;fill-opacity:1;fill-rule:nonzero;stroke:none"
         id="path234" /><path
         d="m 2714.2,252.512 -96.7,27.078 c -3.52,0.98 -7.06,-0.66 -8.52,-3.961 l -32.44,-73.418 c -3.37,-7.621 1.36,-17.039 9.51,-19.18 33.88,-8.851 50.68,-11.429 93.21,-23.34 26.16,-7.32 102.62,-41.781 140.02,-44.73 36.58,-2.891 42.31,33.867 27,38.449 -68.65,20.531 -101.79,64.332 -119.17,89.77 -3.14,4.59 -7.76,7.89 -12.91,9.332"
         style="fill:#17282f;fill-opacity:1;fill-rule:nonzero;stroke:none"
         id="path236" /><path
         d="m 2718.91,347.469 v 0 l 0.22,2.871 -0.22,-2.871 m -89.12,3.492 h -0.03 l 1.91,25.121 h 0.05 l -1.93,-25.121"
         style="fill:#c3c5c2;fill-opacity:1;fill-rule:nonzero;stroke:none"
         id="path238" /><path
         d="m 2718.91,347.469 -89.12,3.492 1.93,25.121 h 89.37 l -1.96,-25.742 -0.22,-2.871"
         style="fill:#dc834c;fill-opacity:1;fill-rule:nonzero;stroke:none"
         id="path240" /><path
         d="m 1933.9,1319.45 -34.08,11.91 34.08,-11.89 v -0.02 m 17.57,87.67 -101.71,35.49 0.01,0.06 101.7,-35.54 v -0.01"
         style="fill:#b1b3b1;fill-opacity:1;fill-rule:nonzero;stroke:none"
         id="path242" /><path
         d="m 1933.9,1319.47 -34.08,11.89 -67.62,23.63 17.56,87.62 101.71,-35.49 -17.57,-87.65"
         style="fill:#dc834c;fill-opacity:1;fill-rule:nonzero;stroke:none"
         id="path244" /><path
         d="m 2750.68,2734.68 c 8.63,-50.53 16.87,-178.21 -20.24,-475.41 l -362.34,-22.38 c -2.85,138.93 -9.81,250.9 -85.32,519.49 -7.95,28.27 12.15,56.87 41.47,58.62 27.6,1.64 62.4,2.71 97.76,1.17 61.59,-2.67 112.08,-5.31 166.68,-15.11 47.06,-8.44 98.47,-21.49 128.44,-29.52 17.47,-4.68 30.5,-19.03 33.55,-36.86"
         style="fill:#406fbf;fill-opacity:1;fill-rule:nonzero;stroke:none"
         id="path246" /><path
         d="m 2368.1,2236.89 c -0.53,25.86 -1.21,50.79 -2.44,75.96 -0.13,2.79 -0.28,5.58 -0.43,8.37 -2.07,38.54 -5.55,77.94 -11.92,122.46 0.04,0.04 0.09,0.08 0.13,0.12 35.21,35.45 67.84,72.16 99.06,110.78 l -32.12,31.91 c -26.83,-21.42 -53.63,-43.13 -80.36,-64.44 -3.61,18.6 -7.69,38.15 -12.34,58.89 2.29,6.56 4.59,13.13 6.91,19.69 l 36.49,-22.83 c 0,0 32.85,86.53 32.82,141.64 -0.01,10.66 -1.24,20.14 -4.19,27.6 -15.12,38.31 -46.73,65.82 -79.58,67.53 1.35,0.2 2.73,0.34 4.12,0.43 18.23,1.08 39.6,1.91 62.19,1.91 11.62,0 23.56,-0.22 35.57,-0.74 v 0 0 c 0,0 17.96,-54.83 117.61,-63.87 8.55,-0.77 16.07,-1.13 22.65,-1.13 77.86,0 26.42,49.89 26.42,49.89 v 0 0 c 47.06,-8.44 98.47,-21.49 128.44,-29.52 17.47,-4.68 30.5,-19.03 33.55,-36.86 3.71,-21.71 7.34,-57.67 7.34,-115.2 0,-16.86 -0.31,-35.59 -1.03,-56.35 0,-0.02 0,-0.05 0,-0.07 -1.93,-55.92 -6.79,-126.64 -16.32,-215.76 -0.3,-2.86 -0.61,-5.75 -0.93,-8.66 -2.73,-25.01 -5.81,-51.44 -9.3,-79.37 v 0 l -265.34,-16.39 v 0 l -37.89,-2.34 -2.5,-0.15 -56.61,-3.5"
         style="fill:#5d87cd;fill-opacity:1;fill-rule:nonzero;stroke:none"
         id="path248" /><path
         d="m 2730.44,2259.27 c 0,0 112.82,-682.92 123.77,-955.35 11.4,-283.37 -116.03,-927.838 -116.03,-927.838 h -120.87 c 0,0 44.07,615.258 16.24,892.528 -30.33,302.27 -168.45,974.27 -168.45,974.27 l 265.34,16.39"
         style="fill:#406fbf;fill-opacity:1;fill-rule:nonzero;stroke:none"
         id="path250" /><path
         d="m 2606.84,371.75 h 141.82 l 10.4,45.238 -158.82,5.532 6.6,-50.77"
         style="fill:#17282f;fill-opacity:1;fill-rule:nonzero;stroke:none"
         id="path252" /><path
         d="m 2595.63,1541.03 c -14.66,90.16 -31.49,185.62 -48.08,276.12 v 0.03 c 16.6,-90.5 33.44,-185.99 48.08,-276.15 m -50.58,289.73 c -1.93,10.47 -3.85,20.86 -5.77,31.18 1.92,-10.3 3.84,-20.7 5.77,-31.16 v -0.02"
         style="fill:#c3c5c2;fill-opacity:1;fill-rule:nonzero;stroke:none"
         id="path254" /><path
         d="m 2547.55,1817.15 c -0.83,4.55 -1.67,9.09 -2.5,13.61 v 0.02 c 0.83,-4.53 1.66,-9.03 2.5,-13.6 v -0.03"
         style="fill:#b1b3b1;fill-opacity:1;fill-rule:nonzero;stroke:none"
         id="path256" /><path
         d="m 2609.83,1450.64 c -4.41,29.23 -9.18,59.5 -14.2,90.39 -14.64,90.16 -31.48,185.65 -48.08,276.15 -0.84,4.57 -1.67,9.07 -2.5,13.6 -1.93,10.46 -3.85,20.86 -5.77,31.16 -10.16,54.71 -20.07,106.89 -29.17,154.09 5.04,60.78 15.55,102.79 34.95,102.79 10.46,0 23.49,-12.19 39.64,-40.2 100.06,-173.54 49.1,-504.53 25.13,-627.98"
         style="fill:#3563b7;fill-opacity:1;fill-rule:nonzero;stroke:none"
         id="path258" /><path
         d="m 2634.75,2253.36 c 0,0 -2.54,-720.22 -112.78,-931.22 -130.89,-250.5 -673.75,7.62 -673.75,7.62 l 23.95,119.52 c 0,0 359.83,-81.08 454.13,-13.96 101.18,313.62 -84.82,580.08 41.8,801.57 l 266.65,16.47"
         style="fill:#406fbf;fill-opacity:1;fill-rule:nonzero;stroke:none"
         id="path260" /><path
         d="m 1874.19,1463.56 -29.71,-148.27 43.45,-25.13 42.82,172.84 -56.56,0.56"
         style="fill:#17282f;fill-opacity:1;fill-rule:nonzero;stroke:none"
         id="path262" /><path
         d="m 2368.46,2694.9 c -16.23,-44.45 -32.62,-90.17 -48.21,-135.36 -15.22,-45.42 -30.19,-90.93 -42.71,-136.32 l -2.32,-8.51 -1.15,-4.26 c -0.41,-1.4 -0.88,-3.38 -0.69,-2.25 l -0.03,0.29 0.1,1.07 -0.08,3.34 -0.34,2.53 c -0.19,1.36 -0.55,3.13 -1.04,4.62 l -0.84,2.28 c -0.31,0.76 -0.9,2.26 -1.45,3.32 -1.2,2.38 -2.56,4.35 -4.37,6.56 -1.95,2.43 -4.34,4.66 -6.91,6.43 -2.48,1.72 -4.75,3.05 -7.42,4.09 -2.95,1.09 -4.59,1.51 -6.39,1.89 -1.63,0.38 -4.2,0.51 -5.08,0.55 -4.86,0.14 -6.98,-0.71 -7.75,-0.89 -1.75,-0.65 -0.54,-0.45 0.82,0.14 1.35,0.5 3.32,1.49 5.26,2.5 4.04,2.17 8.55,4.92 13.09,7.88 18.28,12.16 37.44,26.57 56.15,41.23 37.62,29.42 75.42,60.24 113.28,90.46 l 32.12,-31.91 c -31.22,-38.62 -63.85,-75.33 -99.06,-110.78 -17.83,-17.61 -35.71,-35.02 -56.69,-51.78 -5.31,-4.23 -10.84,-8.43 -17.16,-12.69 -3.26,-2.15 -6.55,-4.27 -10.65,-6.51 -4.04,-2.19 -8.44,-4.49 -16.06,-6.76 -3.7,-1.03 -8.86,-2.35 -16.77,-2.18 -1.64,-0.01 -4.95,0.38 -7.34,0.85 -2.55,0.49 -4.95,1.02 -8.57,2.51 -3.33,1.4 -6.37,2.93 -9.43,5.13 -3.13,2.29 -6.08,5.03 -8.59,7.99 -2.3,2.79 -3.95,5.48 -5.53,8.51 -0.73,1.4 -1.56,3.2 -1.98,4.33 l -1.12,3.38 c -0.67,2.24 -1.26,4.73 -1.6,6.84 -0.22,1.59 -0.38,3.2 -0.49,4.81 -0.25,3.63 -0.1,5.66 0.03,7.91 l 0.29,3.34 0.38,2.54 c 0.67,4.14 0.94,5.12 1.24,6.68 l 0.94,4.65 1.87,9.28 c 10.09,49.5 23.27,97.46 37.97,144.85 14.61,47.53 30.55,93.86 49.1,140.52 l 85.18,-33.1"
         style="fill:#f89e63;fill-opacity:1;fill-rule:nonzero;stroke:none"
         id="path264" /><path
         d="m 2295.52,2810.78 c -35.62,-13.28 -71.5,-140.98 -71.5,-140.98 l 147.06,-92 c 0,0 46.79,123.26 28.63,169.24 -18.9,47.88 -63.54,78.89 -104.19,63.74"
         style="fill:#406fbf;fill-opacity:1;fill-rule:nonzero;stroke:none"
         id="path266" /><path
         d="m 2371.08,2577.8 -36.49,22.83 -79.91,49.99 -26.81,16.77 -3.85,2.41 c 0,0 35.88,127.7 71.5,140.98 7.06,2.63 14.24,3.87 21.39,3.87 33.99,0 67.18,-28.05 82.8,-67.61 2.95,-7.46 4.18,-16.94 4.19,-27.6 0.03,-55.11 -32.82,-141.64 -32.82,-141.64"
         style="fill:#5d87cd;fill-opacity:1;fill-rule:nonzero;stroke:none"
         id="path268" /><path
         d="m 1738.53,1366.31 c 2.53,-12.68 4.33,-29.97 0.14,-34.28 -0.53,-0.54 -1.36,-1.12 -3.12,-0.74 -3.27,0.68 -5.35,2.18 -6.35,4.58 -2.32,5.63 1.12,16.86 9.33,30.44 z m -13.61,-31.04 0.37,-1.02 c 1.55,-3.73 4.71,-6.13 9.39,-7.11 3.53,-0.74 5.77,0.65 7.03,1.94 7.95,8.19 0.69,39.67 -0.16,43.23 l -1.7,1.59 -2.14,-0.93 c -6.3,-9.64 -16.13,-27.09 -12.79,-37.7"
         style="fill:#406fbf;fill-opacity:1;fill-rule:nonzero;stroke:none"
         id="path270" /><path
         d="m 1766.48,1350.35 c 0.58,-1.83 0.42,-3.57 -0.45,-5.31 -1.23,-2.43 -2.55,-2.56 -3.56,-2.41 -6.19,0.92 -16.38,15.38 -19.88,25.68 7.9,-3.38 20.81,-10.16 23.67,-17.35 z m -28.28,17.9 c 3.34,-10.59 14.49,-28.44 23.64,-29.81 1.94,-0.29 5.57,-0.07 7.97,4.7 1.53,3.02 1.65,6.21 0.39,9.39 -4.8,12.06 -28.97,20.91 -29.99,21.28 l -2.08,-0.37 -0.73,-1.98 c 0.16,-0.96 0.44,-2.04 0.8,-3.21"
         style="fill:#406fbf;fill-opacity:1;fill-rule:nonzero;stroke:none"
         id="path272" /><path
         d="m 2762.63,241.922 c 1.58,-0.43 2.81,-1.031 3.6,-1.801 0.71,-0.691 0.94,-1.492 0.73,-2.582 -0.52,-2.828 -1.89,-4.75 -4.17,-5.879 -6.54,-3.23 -20.93,-0.09 -39.12,8.418 13.4,2.363 30.81,4.133 38.96,1.844 z M 2742.3,228.41 c 8.57,-2.39 16.83,-3.281 22.37,-0.539 3.51,1.738 5.69,4.731 6.46,8.891 0.46,2.488 -0.21,4.699 -1.95,6.386 -8.92,8.731 -48.14,0.821 -52.58,-0.109 l -1.67,-1.797 1.15,-2.16 c 6.9,-3.5 16.74,-8.012 26.22,-10.672"
         style="fill:#406fbf;fill-opacity:1;fill-rule:nonzero;stroke:none"
         id="path274" /><path
         d="m 2746.74,268.082 1.21,-0.41 c 3.62,-1.422 3.44,-2.981 3.39,-3.492 -0.69,-6.121 -18.56,-16.86 -30.79,-20.27 2.9,6.461 9.66,19.559 18.41,23.481 2.64,1.191 5.2,1.41 7.78,0.691 z m -30.28,-29.152 0.89,-0.059 c 11.56,1.77 37.05,14.649 38.2,24.84 0.27,2.41 -0.56,5.75 -6.05,7.898 -4.05,1.59 -8.19,1.481 -12.28,-0.359 -13.34,-5.98 -21.82,-28.59 -22.18,-29.551 l 0.35,-2.07 1.07,-0.699"
         style="fill:#406fbf;fill-opacity:1;fill-rule:nonzero;stroke:none"
         id="path276" /><path
         d="m 2361.36,2257.82 -7.27,-33.01 c -1.11,-2.59 2.03,-4.98 6.22,-4.72 l 372.93,23.04 c 3.26,0.2 5.87,1.96 5.95,4.03 l 1.26,32.64 c 0.09,2.26 -2.86,3.99 -6.43,3.77 l -366.93,-22.67 c -2.7,-0.16 -5.02,-1.41 -5.73,-3.08"
         style="fill:#ffffff;fill-opacity:1;fill-rule:nonzero;stroke:none"
         id="path278" /><path
         d="m 2413.17,2219.83 -9.83,-0.61 c -1.95,-0.12 -3.51,0.8 -3.45,2.05 l 2.01,42.42 c 0.06,1.24 1.7,2.36 3.66,2.47 l 9.83,0.61 c 1.96,0.12 3.51,-0.79 3.45,-2.04 l -2,-42.42 c -0.06,-1.24 -1.71,-2.36 -3.67,-2.48"
         style="fill:#406fbf;fill-opacity:1;fill-rule:nonzero;stroke:none"
         id="path280" /><path
         d="m 2705.83,2237.91 -9.82,-0.61 c -1.96,-0.12 -3.51,0.8 -3.45,2.04 l 2,42.42 c 0.06,1.24 1.71,2.36 3.67,2.48 l 9.83,0.6 c 1.95,0.13 3.5,-0.79 3.44,-2.03 l -2,-42.42 c -0.06,-1.25 -1.71,-2.36 -3.67,-2.48"
         style="fill:#406fbf;fill-opacity:1;fill-rule:nonzero;stroke:none"
         id="path282" /><path
         d="m 2559.5,2228.87 -9.82,-0.61 c -1.96,-0.12 -3.51,0.8 -3.45,2.04 l 2,42.43 c 0.06,1.24 1.71,2.35 3.66,2.47 l 9.83,0.61 c 1.96,0.12 3.51,-0.8 3.46,-2.04 l -2.01,-42.42 c -0.06,-1.25 -1.71,-2.36 -3.67,-2.48"
         style="fill:#406fbf;fill-opacity:1;fill-rule:nonzero;stroke:none"
         id="path284" /><path
         d="m 2422.01,2816.13 c 61.64,-2.67 112.08,-5.3 166.69,-15.1 20.09,-3.55 41,-8.04 60.71,-12.52 l 0.01,-0.12 c 10.45,-32.47 17.77,-98.92 -11.56,-153.71 -7.61,21.27 -23.68,36.34 -46.07,46.8 -19.01,-17.03 -28.59,-35.98 -36.42,-55.29 -38.86,7.04 -143.61,97.91 -191.38,171.13 l -12.36,18.93 c 21.69,0.84 45.83,0.93 70.38,-0.12"
         style="fill:#ffffff;fill-opacity:1;fill-rule:nonzero;stroke:none"
         id="path286" /><path
         d="m 2427.14,2999.29 c 13.77,-53.71 30.22,-151.32 -5.13,-183.12 0,0 17.96,-54.83 117.61,-63.87 109.58,-9.93 49.07,48.76 49.07,48.76 -60.67,19.47 -61.82,62.98 -53.93,103.02 l -107.62,95.21"
         style="fill:#f89e63;fill-opacity:1;fill-rule:nonzero;stroke:none"
         id="path288" /><path
         d="m 2422.06,2816.12 c 61.59,-2.61 112.04,-5.24 166.65,-15.1 3.64,-0.68 7.29,-1.35 10.93,-2.02 14.84,-26.02 19.34,-55.46 -9.09,-108.51 0,0 -148.55,62.14 -190.36,126.24 7.2,-0.08 14.53,-0.29 21.87,-0.61"
         style="fill:#f89e63;fill-opacity:1;fill-rule:nonzero;stroke:none"
         id="path290" /><path
         d="m 2531.37,2875.49 c -0.01,0 -0.01,0 -0.02,0 0.01,0.7 0.03,1.39 0.06,2.09 -0.02,-0.7 -0.04,-1.4 -0.04,-2.09"
         style="fill:#111d23;fill-opacity:1;fill-rule:nonzero;stroke:none"
         id="path292" /><path
         d="m 2531.35,2875.49 c -15.76,3.65 -38.52,15.51 -52.59,30.24 12.93,-4.15 25.88,-6.1 38.44,-6.1 5.71,0 11.35,0.4 16.87,1.19 -1.42,-7.71 -2.43,-15.52 -2.66,-23.24 -0.03,-0.7 -0.05,-1.39 -0.06,-2.09"
         style="fill:#dc834c;fill-opacity:1;fill-rule:nonzero;stroke:none"
         id="path294" /><path
         d="m 2356.42,3064.08 c 31.64,-82.88 43.26,-118.63 99.52,-148.65 84.62,-45.15 179.5,11.84 173.26,102.5 -5.62,81.61 -56.42,203.43 -149.66,211.17 -91.86,7.63 -154.76,-82.14 -123.12,-165.02"
         style="fill:#f89e63;fill-opacity:1;fill-rule:nonzero;stroke:none"
         id="path296" /><path
         d="m 2486.38,3057.83 -7.4,0.83 c 0.89,7.98 7.59,19.34 14.61,24.79 5.78,4.48 10.49,4.35 13.41,3.44 4.17,-1.28 7.42,-4.91 9.15,-10.22 l -7.11,-2.3 c -0.94,2.93 -2.45,4.85 -4.23,5.39 -2.29,0.71 -4.84,-0.81 -6.64,-2.19 -5.39,-4.19 -11.11,-13.78 -11.79,-19.74"
         style="fill:#17282f;fill-opacity:1;fill-rule:nonzero;stroke:none"
         id="path298" /><path
         d="m 2570.09,3096.61 c -0.73,5.96 1.16,9.73 2.89,11.84 2.5,3.07 6.32,4.9 11.04,5.29 7.69,0.64 14.4,-3.24 18.52,-10.65 l -6.52,-3.61 c -1.88,3.39 -5.24,7.32 -11.38,6.83 -1.86,-0.15 -4.37,-0.72 -5.88,-2.56 -1.17,-1.44 -1.6,-3.54 -1.26,-6.23 l -7.41,-0.91"
         style="fill:#17282f;fill-opacity:1;fill-rule:nonzero;stroke:none"
         id="path300" /><path
         d="m 2555.88,3088.27 c 0,0 20.96,-25.97 38.28,-36.24 -6.43,-11.32 -23.09,-12.28 -23.09,-12.28 l -15.19,48.52"
         style="fill:#f57739;fill-opacity:1;fill-rule:nonzero;stroke:none"
         id="path302" /><path
         d="m 2541.98,3001.05 c 3.32,0.51 6.78,1.29 10.37,2.42 1.12,0.35 1.75,1.54 1.4,2.65 -0.36,1.12 -1.64,1.71 -2.66,1.39 -30.29,-9.47 -50.9,7.23 -51.1,7.4 -0.9,0.74 -2.23,0.62 -2.99,-0.29 -0.74,-0.9 -0.61,-2.24 0.29,-2.98 0.81,-0.67 18.12,-14.61 44.69,-10.59"
         style="fill:#17282f;fill-opacity:1;fill-rule:nonzero;stroke:none"
         id="path304" /><path
         d="m 2354.41,2988.58 c 11.17,-14.61 28.05,-22.7 43.06,-24.45 22.58,-2.65 30.35,18.4 21.13,37.87 -8.3,17.52 -30.05,40.01 -51.3,33.65 -20.93,-6.26 -25.66,-30.36 -12.89,-47.07"
         style="fill:#f89e63;fill-opacity:1;fill-rule:nonzero;stroke:none"
         id="path306" /><path
         d="m 2500.33,3229.56 c 65.36,-48.35 -17.15,-54.53 -58.54,-90.08 -39.63,-34.03 -9.05,-89.75 -76.88,-112.36 -21.83,-7.28 -63.23,-7.28 -63.23,-7.28 0,0 31.39,61.41 21.38,98.27 -10.01,36.84 102.05,167.08 177.27,111.45"
         style="fill:#17282f;fill-opacity:1;fill-rule:nonzero;stroke:none"
         id="path308" /><path
         d="m 2488.81,3236.5 c 13.85,-29.87 48.44,-23.86 76.16,-54.46 16.99,-18.75 44.56,44.34 0.72,66.17 -43.83,21.84 -98.67,35.31 -76.88,-11.71"
         style="fill:#17282f;fill-opacity:1;fill-rule:nonzero;stroke:none"
         id="path310" /><path
         d="m 2417.7,3012.13 c 9.27,-35.36 5.28,-67.04 -30.08,-76.31 -35.36,-9.27 -71.55,11.89 -80.81,47.25 -9.27,35.36 11.88,71.55 47.25,80.81 35.36,9.27 54.37,-16.38 63.64,-51.75"
         style="fill:#406fbf;fill-opacity:1;fill-rule:nonzero;stroke:none"
         id="path312" /><path
         d="m 2419.23,3257.25 -43.37,-21.05 c -83.89,-68.06 -35.89,-192.87 -35.89,-192.87 l 32.77,14.91 c 0,0 -37.4,130.94 46.49,199.01"
         style="fill:#406fbf;fill-opacity:1;fill-rule:nonzero;stroke:none"
         id="path314" /><path
         d="m 2404,3246.82 -26.94,-13.07 c -74.09,-60.2 -41.79,-168.16 -35.52,-186.7 l 27.98,12.73 c -4.18,16.77 -27.06,121.7 34.48,187.04 m -64.03,-206.22 -1.04,0.21 -1.51,1.54 c -0.49,1.27 -47.74,127.45 36.73,195.97 l 43.9,21.38 c 1.24,0.59 2.76,0.18 3.49,-0.99 0.75,-1.17 0.49,-2.71 -0.58,-3.59 -81.56,-66.16 -45.96,-194.83 -45.59,-196.12 0.37,-1.31 -0.27,-2.68 -1.5,-3.24 l -32.77,-14.91 -1.13,-0.25"
         style="fill:#406fbf;fill-opacity:1;fill-rule:nonzero;stroke:none"
         id="path316" /><path
         d="m 2357.49,2944.51 c -18.63,0 -36.99,16.54 -43.27,40.5 -6.88,26.24 3.24,51.84 22.69,58.73 0.3,-0.85 0.48,-1.32 0.51,-1.39 l 1.51,-1.54 1.04,-0.21 1.13,0.25 9.17,4.17 c 14.69,-2.8 24.17,-20.44 30,-42.7 7.17,-27.33 6.13,-51.28 -14.94,-56.8 -2.6,-0.68 -5.22,-1.01 -7.84,-1.01"
         style="fill:#c864f6d3;fill-opacity:1;fill-rule:nonzero;stroke:none"
         id="path318" /><path
         d="m 2339.97,3040.6 -1.04,0.21 -1.51,1.54 c -0.03,0.07 -0.21,0.54 -0.51,1.39 0.81,0.28 1.64,0.54 2.48,0.76 2.34,0.61 4.58,0.91 6.71,0.91 1.44,0 2.82,-0.14 4.17,-0.39 l -9.17,-4.17 -1.13,-0.25"
         style="fill:#c864f6d3;fill-opacity:1;fill-rule:nonzero;stroke:none"
         id="path320" /><path
         d="m 2450.66,3086.68 c 1.73,0.45 3.05,1.97 3.16,3.84 1.21,19.55 22.59,32.95 22.8,33.08 1.99,1.22 2.61,3.84 1.39,5.83 -1.22,1.99 -3.83,2.62 -5.83,1.38 -1.03,-0.64 -25.33,-15.88 -26.81,-39.76 -0.15,-2.34 1.63,-4.34 3.97,-4.49 l 1.32,0.12"
         style="fill:#17282f;fill-opacity:1;fill-rule:nonzero;stroke:none"
         id="path322" /><path
         d="m 2592.92,3156.9 c 1.44,0.03 2.84,0.79 3.61,2.13 1.17,2.02 0.46,4.61 -1.57,5.78 -20.31,11.65 -37.83,2.96 -38.56,2.59 -2.08,-1.06 -2.9,-3.62 -1.84,-5.7 1.05,-2.07 3.59,-2.9 5.67,-1.86 0.58,0.29 14.3,6.93 30.52,-2.38 l 2.17,-0.56"
         style="fill:#17282f;fill-opacity:1;fill-rule:nonzero;stroke:none"
         id="path324" /><path
         d="m 2410.27,2567.65 -14.4,95.49 77.46,-47.56 c 0,0 -2.72,-57.34 -36.27,-73.31 l -26.79,25.38"
         style="fill:#f89e63;fill-opacity:1;fill-rule:nonzero;stroke:none"
         id="path326" /><path
         d="m 2423.17,2711.46 72.37,-26.22 -22.21,-69.66 -77.46,47.56 27.3,48.32"
         style="fill:#f89e63;fill-opacity:1;fill-rule:nonzero;stroke:none"
         id="path328" /><path
         d="m 3247.73,2728.08 -45.48,-34.19 c -2.5,-1.88 -6.06,-1.37 -7.94,1.13 l -76.19,101.39 c -1.89,2.5 -1.38,6.06 1.12,7.94 l 45.49,34.19 c 2.5,1.88 6.06,1.37 7.94,-1.13 l 76.19,-101.39 c 1.88,-2.5 1.38,-6.06 -1.13,-7.94"
         style="fill:#406fbf;fill-opacity:1;fill-rule:nonzero;stroke:none"
         id="path330" /><path
         d="m 3213.79,2765.43 -37.98,-28.54 c -2.03,-1.52 -4.91,-1.11 -6.44,0.92 l -39.88,53.06 c -1.52,2.03 -1.11,4.91 0.92,6.44 l 37.97,28.54 c 2.04,1.53 4.92,1.11 6.44,-0.91 l 39.88,-53.07 c 1.53,-2.03 1.12,-4.91 -0.91,-6.44"
         style="fill:#ffffff;fill-opacity:1;fill-rule:nonzero;stroke:none"
         id="path332" /><path
         d="m 3178.8,2710.62 -0.58,12.52 12.64,7.44 c 6.55,3.85 12.53,8.6 17.77,14.1 l 4.4,4.61 -2.8,4.08 c -3.15,4.58 -8.94,6.52 -14.21,4.76 l -10.7,-3.58 -53.73,-7.33 -0.42,-22.83 17.23,-23.5 30.4,9.73"
         style="fill:#f89e63;fill-opacity:1;fill-rule:nonzero;stroke:none"
         id="path334" /></g></g></svg>
